<svg xmlns="http://www.w3.org/2000/svg" width="600" height="600" fill="none"><path fill="#24cb71" d="M100 500c0-55.228 44.772-100 100-100h100v100c0 55.228-44.772 100-100 100s-100-44.772-100-100"/><path fill="#ff7237" d="M300 0v200h100c55.228 0 100-44.772 100-100S455.228 0 400 0Z"/><circle cx="399.167" cy="300" r="100" fill="#00b6ff"/><path fill="#ff3737" d="M100 100c0 55.228 44.772 100 100 100h100V0H200c-55.228 0-100 44.772-100 100"/><path fill="#874fff" d="M100 300c0 55.228 44.772 100 100 100h100V200H200c-55.228 0-100 44.772-100 100"/></svg>